# xmcd CD database file
#
# Track frame offsets:
#	170
#	19375
#	38227
#	59212
#	77025
#	97322
#	115862
#	132095
#	153537
#	169212
#	184875
#	200372
#
# Disc length: 2818 seconds
#
# Revision: 3
# Processed by: cddbd v1.5.1PL0 Copyright (c) Steve Scherf et al.
# Submitted via: CDex 1.51
#
DISCID=ae0b000c
DTITLE=Various Artist - Duetos
DYEAR=2000
DGENRE=MPB
TTITLE0=Fafá De Belém and Chitãozinho and Xororó - Nuvem De Lágrimas
TTITLE1=Fagner and Roberta Miranda - Cabecinha No Ombro
TTITLE2=Jorge Ben and Caetano Veloso - Ive Brussel
TTITLE3=Emílio Santiago and Verônica Sabino - Tudo Que Se Quer (All I Ask Of You)
TTITLE4=Chico Batera and João Bosco - Tiro De Misericórdia
TTITLE5=Francis Hime and Chico Buarque - Pássara
TTITLE6=Gal Costa and Caetano Veloso - Que Pena (Ela Já Não Gosta Mais De Mim)
TTITLE7=Simone and Chico Buarque - Iolanda (Iolanda)
TTITLE8=Chico Buarque and Cristina - Sem Fantasia
TTITLE9=Danilo Caymmi and Dorival Caymmi - Vamos Falar De Tereza
TTITLE10=Geraldo Vandré and Anna Lúcia - Samba Em Prelúdio
TTITLE11=MPB-4 and Quarteto Em Cy - Fogo Sobre Terra
EXTD=YEAR: 2000
EXTT0=
EXTT1=
EXTT2=
EXTT3=
EXTT4=
EXTT5=
EXTT6=
EXTT7=
EXTT8=
EXTT9=
EXTT10=
EXTT11=
PLAYORDER=
